# This file uses centimeters as units for non-parametric coordinates.

mtllib objSignal.mtl
g default
v -0.041032 8.936465 -0.032973
v 0.041032 8.936465 -0.032973
v -0.041032 6.386979 -0.032973
v 0.041032 6.386979 -0.032973
v 0.000000 8.936465 -0.032973
v 0.000000 7.661722 -0.032973
v 1.274743 7.661722 -0.032973
v 0.000000 6.386979 -0.032973
v -1.274743 7.661722 -0.032973
v -0.061668 6.427856 0.032340
v -1.233694 7.661722 0.032340
v 0.000000 6.427856 0.032340
v 0.061668 6.427856 0.032340
v 1.233694 7.661722 0.032340
v 0.061668 8.895588 0.032340
v 0.000000 8.895588 0.032340
v -0.061668 8.895588 0.032340
v -0.061668 6.427856 0.024781
v -1.233694 7.661722 0.024781
v 0.000000 6.427856 0.024781
v 0.000000 7.661722 0.024781
v 0.061668 6.427856 0.024781
v 1.233694 7.661722 0.024781
v 0.061668 8.895588 0.024781
v 0.000000 8.895588 0.024781
v -0.061668 8.895588 0.024781
v -0.063002 8.988302 0.032340
v 0.000000 8.997614 0.032340
v -0.063003 6.335142 -0.032973
v 0.000000 6.325830 -0.032973
v 0.063003 6.335142 0.032340
v 1.318684 7.661722 0.032340
v -1.318684 7.661722 -0.032973
v 0.063002 8.988302 0.032340
v 0.063002 8.988302 -0.032973
v 0.000000 8.997614 -0.032973
v -0.063002 8.988302 -0.032973
v 0.063003 6.335142 -0.032973
v 0.000000 6.325830 0.032340
v -0.063003 6.335142 0.032340
v 1.318684 7.661722 -0.032973
v -1.318684 7.661722 0.032340
v -0.140515 -0.011190 0.022028
v 0.114936 -0.011190 0.023204
v -0.140515 6.545993 0.022028
v 0.114936 6.545993 0.023204
v -0.140221 6.545993 -0.030188
v 0.115156 6.545993 -0.028777
v -0.140221 -0.011190 -0.030188
v 0.115156 -0.011190 -0.028777
v -1.229714 5.663209 0.044221
v 1.229714 5.663209 0.044221
v -1.229714 6.329983 0.044221
v 1.229714 6.329983 0.044221
v -1.229714 6.329983 -0.044221
v 1.229714 6.329983 -0.044221
v -1.229714 5.663209 -0.044221
v 1.229714 5.663209 -0.044221
v -1.178437 5.705538 0.044221
v 1.178437 5.705538 0.044221
v 1.178437 6.287655 0.044221
v -1.178437 6.287655 0.044221
v -1.178437 5.705538 0.030887
v 1.178437 5.705538 0.030887
v 1.178437 6.287655 0.030887
v -1.178437 6.287655 0.030887
vt 0.078964 0.622284
vt 0.480264 0.282365
vt 0.501765 0.281888
vt 0.509093 0.612757
vt 0.523266 0.281412
vt 0.939223 0.603230
vt 0.537923 0.943150
vt 0.516422 0.943627
vt 0.494921 0.944103
vt 0.197516 0.068569
vt 0.800838 0.060850
vt 0.802484 0.177576
vt 0.199163 0.185295
vt -1.415979 -1.777469
vt -1.380131 -1.777469
vt -1.380131 2.744676
vt -1.415979 2.744676
vt -1.342790 -1.777469
vt -1.306779 -1.777469
vt -1.306779 2.744676
vt -1.342790 2.744676
vt 1.633679 0.083856
vt 1.694672 0.083856
vt 1.694672 0.543695
vt 1.633679 0.543695
vt 1.543885 0.083856
vt 1.604878 0.083856
vt 1.604878 0.543695
vt 1.543885 0.543695
vt 1.515085 0.083856
vt 1.515085 0.485312
vt 1.505889 0.485312
vt 1.505889 0.083856
vt 1.467893 0.485312
vt 1.467893 0.083856
vt 1.477089 0.083856
vt 1.477089 0.485312
vt 2.508821 -0.868042
vt 2.508821 -0.911492
vt 2.553865 -0.911492
vt 2.553865 -0.868042
vt 2.508821 -1.777469
vt 2.553865 -1.777469
vt 2.553865 -0.824593
vt 2.508821 -0.824593
vt 2.553865 0.041385
vt 2.508821 0.041385
vt 2.426483 -0.868043
vt 2.426483 -0.911492
vt 2.471526 -0.911492
vt 2.471526 -0.868043
vt 2.471526 -1.777469
vt 2.426483 -1.777469
vt 2.471526 -0.824593
vt 2.426483 -0.824593
vt 2.426483 0.041384
vt 2.471526 0.041384
vt 2.591160 -0.884126
vt 2.591160 -0.926655
vt 2.596373 -0.926655
vt 2.596373 -0.884126
vt 2.591160 -0.969184
vt 2.596373 -0.969184
vt 2.591160 -0.075841
vt 2.596373 -0.075841
vt 2.591160 -1.777469
vt 2.596373 -1.777469
vt 2.632967 -0.969185
vt 2.632967 -0.926655
vt 2.627755 -0.926655
vt 2.627755 -0.969185
vt 2.632967 -0.884126
vt 2.627755 -0.884126
vt 2.632967 -1.777469
vt 2.627755 -1.777469
vt 2.632967 -0.075842
vt 2.627755 -0.075842
vt 1.403082 0.260180
vt 1.402271 0.084009
vt 1.438120 0.083856
vt 1.439093 0.259977
vt 2.664350 -0.081331
vt 2.664350 -1.777469
vt 2.725343 -1.777469
vt 2.725343 -0.081331
vt 2.288104 1.779994
vt 2.288104 0.083856
vt 2.349097 0.083856
vt 2.349097 1.779994
vt 1.761468 1.709268
vt 1.761468 0.083856
vt 1.770664 0.083856
vt 1.770664 1.709268
vt 1.732668 0.083856
vt 1.732668 1.709268
vt 1.723472 1.709268
vt 1.723472 0.083856
vt -1.239297 -0.856175
vt -0.388471 -1.735299
vt -0.360173 -1.735299
vt -0.360173 -0.856175
vt -1.269600 -0.856175
vt -0.403623 -1.771048
vt -0.360173 -1.777469
vt -0.331875 -1.735299
vt 0.518950 -0.856175
vt -0.360173 0.022949
vt -0.388471 0.022949
vt -0.403623 0.058698
vt -0.316724 -1.771048
vt 0.549254 -0.856175
vt -0.331875 0.022949
vt -0.360173 0.065120
vt -0.316724 0.058698
vt 1.487868 -1.707107
vt 1.445339 -1.707107
vt 1.444419 -1.771047
vt 1.487868 -1.777469
vt 0.637055 -0.856174
vt 0.578441 -0.856174
vt 1.530398 -1.707107
vt 1.531318 -1.771047
vt 1.445339 -0.005242
vt 1.444419 0.058698
vt 2.338682 -0.856174
vt 2.397295 -0.856174
vt 1.487868 -0.005242
vt 1.487868 0.065120
vt 1.530398 -0.005242
vt 1.531318 0.058698
vt -1.837735 -1.777469
vt -1.661565 -1.777469
vt -1.661565 2.744676
vt -1.837735 2.744676
vt -1.626400 -1.777469
vt -1.450280 -1.777469
vt -1.450280 2.744676
vt -1.626400 2.744676
vt 2.377897 1.779994
vt 2.377897 0.083856
vt 2.837736 0.083856
vt 2.837736 1.779994
vt 1.799464 1.779994
vt 1.799464 0.083856
vt 1.828656 0.119219
vt 1.828656 1.744631
vt 2.259303 0.083856
vt 2.230112 0.119219
vt 2.259303 1.779994
vt 2.230112 1.744631
vn 0.000000 0.000000 1.000000
vn 0.000000 0.000000 1.000000
vn 0.000000 0.000000 1.000000
vn 0.000000 0.000000 1.000000
vn -0.000000 0.000000 -1.000000
vn -0.000000 0.000000 -1.000000
vn 0.000000 0.000000 -1.000000
vn 0.000000 0.000000 -1.000000
vn 0.726248 -0.687433 0.000000
vn 0.726248 -0.687433 0.000000
vn 0.726248 -0.687433 0.000000
vn 0.726248 -0.687433 0.000000
vn -0.726248 -0.687433 0.000000
vn -0.726248 -0.687433 0.000000
vn -0.726248 -0.687433 0.000000
vn -0.726248 -0.687433 0.000000
vn 0.000000 0.000000 1.000000
vn 0.000000 0.000000 1.000000
vn 0.000000 0.000000 1.000000
vn 0.000000 0.000000 1.000000
vn 0.000000 0.000000 1.000000
vn 0.000000 0.000000 1.000000
vn 0.000000 0.000000 1.000000
vn 0.000000 0.000000 1.000000
vn 0.000000 0.000000 1.000000
vn 0.000000 0.000000 1.000000
vn 0.000000 0.000000 1.000000
vn 0.000000 0.000000 1.000000
vn 0.146210 0.989254 0.000000
vn 0.146210 0.989254 0.000000
vn 0.146210 0.989254 0.000000
vn 0.146210 0.989254 0.000000
vn -0.146210 0.989254 0.000000
vn -0.146210 0.989254 0.000000
vn -0.146210 0.989254 0.000000
vn -0.146210 0.989254 0.000000
vn 0.000000 0.000000 -1.000000
vn 0.000000 0.000000 -1.000000
vn 0.000000 0.000000 -1.000000
vn 0.000000 0.000000 -1.000000
vn 0.000000 0.000000 -1.000000
vn 0.000000 0.000000 -1.000000
vn 0.000000 0.000000 -1.000000
vn 0.000000 0.000000 -1.000000
vn 0.146210 -0.989254 0.000000
vn 0.146210 -0.989254 0.000000
vn 0.146210 -0.989254 0.000000
vn 0.146210 -0.989254 0.000000
vn -0.146210 -0.989254 0.000000
vn -0.146210 -0.989254 0.000000
vn -0.146210 -0.989254 0.000000
vn -0.146210 -0.989254 0.000000
vn 0.726248 0.687433 0.000000
vn 0.726248 0.687433 0.000000
vn 0.726248 0.687433 0.000000
vn 0.726248 0.687433 0.000000
vn -0.726248 0.687433 0.000000
vn -0.726248 0.687433 0.000000
vn -0.726248 0.687433 0.000000
vn -0.726248 0.687433 0.000000
vn 0.000000 0.000000 1.000000
vn 0.000000 0.000000 1.000000
vn 0.000000 0.000000 1.000000
vn 0.000000 0.000000 1.000000
vn 0.000000 0.000000 1.000000
vn 0.000000 0.000000 1.000000
vn -0.000000 0.000000 1.000000
vn -0.000000 0.000000 1.000000
vn -0.000000 0.000000 1.000000
vn -0.000000 0.000000 1.000000
vn 0.725043 0.688704 0.000000
vn 0.725043 0.688704 0.000000
vn 0.725043 0.688704 0.000000
vn 0.725043 0.688704 0.000000
vn 0.000000 1.000000 0.000000
vn 0.000000 1.000000 0.000000
vn 0.000000 1.000000 0.000000
vn 0.000000 1.000000 0.000000
vn 0.000000 1.000000 0.000000
vn 0.000000 1.000000 0.000000
vn -0.725043 0.688704 0.000000
vn -0.725043 0.688704 0.000000
vn -0.725043 0.688704 0.000000
vn -0.725043 0.688704 0.000000
vn -0.725043 -0.688704 0.000000
vn -0.725043 -0.688704 0.000000
vn -0.725043 -0.688704 0.000000
vn -0.725043 -0.688704 0.000000
vn 0.000000 -1.000000 0.000000
vn 0.000000 -1.000000 0.000000
vn 0.000000 -1.000000 0.000000
vn 0.000000 -1.000000 0.000000
vn 0.000000 -1.000000 0.000000
vn 0.000000 -1.000000 0.000000
vn 0.725043 -0.688704 0.000000
vn 0.725043 -0.688704 0.000000
vn 0.725043 -0.688704 0.000000
vn 0.725043 -0.688704 0.000000
vn 0.000000 0.000000 1.000000
vn 0.000000 0.000000 1.000000
vn 0.000000 0.000000 1.000000
vn 0.000000 0.000000 1.000000
vn 0.000000 0.000000 -1.000000
vn 0.000000 0.000000 -1.000000
vn -0.000000 0.000000 -1.000000
vn 0.000000 0.000000 -1.000000
vn 0.000000 0.000000 -1.000000
vn -0.000000 0.000000 -1.000000
vn 0.000000 0.000000 -1.000000
vn 0.000000 0.000000 -1.000000
vn 0.000000 0.000000 1.000000
vn 0.000000 0.000000 1.000000
vn -0.004604 0.000000 0.999989
vn -0.004604 0.000000 0.999989
vn -0.004604 0.000000 0.999989
vn -0.004604 0.000000 0.999989
vn 0.000000 1.000000 0.000000
vn 0.000000 1.000000 0.000000
vn 0.000000 1.000000 0.000000
vn 0.000000 1.000000 0.000000
vn 0.005526 0.000000 -0.999985
vn 0.005526 0.000000 -0.999985
vn 0.005526 0.000000 -0.999985
vn 0.005526 0.000000 -0.999985
vn 0.999991 0.000000 0.004242
vn 0.999991 0.000000 0.004242
vn 0.999991 0.000000 0.004242
vn 0.999991 0.000000 0.004242
vn -0.999984 0.000000 -0.005630
vn -0.999984 0.000000 -0.005630
vn -0.999984 0.000000 -0.005630
vn -0.999984 0.000000 -0.005630
vn 0.000000 0.000000 1.000000
vn 0.000000 0.000000 1.000000
vn 0.000000 0.000000 1.000000
vn 0.000000 0.000000 1.000000
vn 0.000000 1.000000 0.000000
vn 0.000000 1.000000 0.000000
vn 0.000000 1.000000 0.000000
vn 0.000000 1.000000 0.000000
vn 0.000000 0.000000 -1.000000
vn 0.000000 0.000000 -1.000000
vn 0.000000 0.000000 -1.000000
vn 0.000000 0.000000 -1.000000
vn 0.000000 -1.000000 0.000000
vn 0.000000 -1.000000 0.000000
vn 0.000000 -1.000000 0.000000
vn 0.000000 -1.000000 0.000000
vn 1.000000 0.000000 0.000000
vn 1.000000 0.000000 0.000000
vn 1.000000 0.000000 0.000000
vn 1.000000 0.000000 0.000000
vn -1.000000 0.000000 0.000000
vn -1.000000 0.000000 0.000000
vn -1.000000 0.000000 0.000000
vn -1.000000 0.000000 0.000000
vn 0.000000 0.000000 1.000000
vn -0.000000 0.000000 1.000000
vn -0.000000 0.000000 1.000000
vn 0.000000 0.000000 1.000000
vn -0.000000 0.000000 1.000000
vn -0.000000 0.000000 1.000000
vn 0.000000 0.000000 1.000000
vn 0.000000 0.000000 1.000000
vn 0.000000 1.000000 0.000000
vn 0.000000 1.000000 0.000000
vn 0.000000 1.000000 0.000000
vn 0.000000 1.000000 0.000000
vn -1.000000 0.000000 0.000000
vn -1.000000 0.000000 0.000000
vn -1.000000 0.000000 0.000000
vn -1.000000 0.000000 0.000000
vn 0.000000 -1.000000 0.000000
vn 0.000000 -1.000000 0.000000
vn 0.000000 -1.000000 0.000000
vn 0.000000 -1.000000 0.000000
vn 1.000000 0.000000 0.000000
vn 1.000000 0.000000 0.000000
vn 1.000000 0.000000 0.000000
vn 1.000000 0.000000 0.000000
s off
g signal
usemtl blinn1SG
f 19/1/1 18/2/2 20/3/3 21/4/4
s 1
usemtl lambert2SG
f 9/98/5 1/99/6 5/100/7 6/101/8
s off
f 32/52/9 31/50/10 38/49/11 41/53/12
f 33/56/13 29/55/14 40/54/15 42/57/16
usemtl blinn1SG
f 20/3/17 22/5/18 23/6/19 21/4/20
f 23/6/21 24/7/22 25/8/23 21/4/24
f 25/8/25 26/9/26 19/1/27 21/4/28
usemtl lambert2SG
f 28/38/29 34/39/30 35/40/31 36/41/32
f 28/38/33 36/41/34 37/44/35 27/45/36
s 1
f 5/100/7 2/105/37 7/106/38 6/101/39
f 7/106/38 4/112/40 8/107/41 6/101/42
f 8/107/41 3/108/43 9/98/5 6/101/44
s off
f 30/48/45 38/49/46 31/50/47 39/51/48
f 30/48/49 39/51/50 40/54/51 29/55/52
f 32/42/53 41/43/54 35/40/55 34/39/56
f 33/46/57 42/47/58 27/45/59 37/44/60
s 5
f 12/115/61 10/116/62 40/117/63 39/118/64
f 13/121/65 12/115/61 39/118/64 31/122/66
f 14/125/67 13/121/65 31/122/66 32/126/68
f 15/129/69 14/125/67 32/126/68 34/130/70
s off
f 11/64/71 10/58/72 18/61/73 19/65/74
s 6
f 10/58/75 12/59/76 20/60/77 18/61/78
f 12/59/76 13/62/79 22/63/80 20/60/77
s off
f 13/62/81 14/66/82 23/67/83 22/63/84
f 14/74/85 15/68/86 24/71/87 23/75/88
s 7
f 15/68/89 16/69/90 25/70/91 24/71/92
f 16/69/90 17/72/93 26/73/94 25/70/91
s off
f 17/72/95 11/76/96 19/77/97 26/73/98
s 5
f 16/127/99 28/128/100 27/124/101 17/123/102
s 1
f 3/108/43 8/107/41 30/113/103 29/109/104
f 9/98/5 3/108/43 29/109/104 33/102/105
s 5
f 15/129/69 34/130/70 28/128/100 16/127/99
s 1
f 2/105/37 5/100/7 36/104/106 35/110/107
f 5/100/7 1/99/6 37/103/108 36/104/106
f 8/107/41 4/112/40 38/114/109 30/113/103
f 4/112/40 7/106/38 41/111/110 38/114/109
f 7/106/38 2/105/37 35/110/107 41/111/110
s 5
f 11/119/111 42/120/112 40/117/63 10/116/62
f 17/123/102 27/124/101 42/120/112 11/119/111
s 1
f 1/99/6 9/98/5 33/102/105 37/103/108
s off
f 43/131/113 44/132/114 46/133/115 45/134/116
f 45/78/117 46/79/118 48/80/119 47/81/120
f 47/135/121 48/136/122 50/137/123 49/138/124
f 44/14/125 50/15/126 48/16/127 46/17/128
f 49/18/129 43/19/130 45/20/131 47/21/132
usemtl blinn1SG
f 63/10/133 64/11/134 65/12/135 66/13/136
usemtl lambert2SG
f 53/82/137 54/83/138 56/84/139 55/85/140
f 55/139/141 56/140/142 58/141/143 57/142/144
f 57/86/145 58/87/146 52/88/147 51/89/148
f 52/22/149 58/23/150 56/24/151 54/25/152
f 57/26/153 51/27/154 53/28/155 55/29/156
s 8
f 51/143/157 52/144/158 60/145/159 59/146/160
f 52/144/158 54/147/161 61/148/162 60/145/159
f 54/147/161 53/149/163 62/150/164 61/148/162
f 53/149/163 51/143/157 59/146/160 62/150/164
s off
f 59/90/165 60/91/166 64/92/167 63/93/168
f 60/30/169 61/31/170 65/32/171 64/33/172
f 61/94/173 62/95/174 66/96/175 65/97/176
f 62/34/177 59/35/178 63/36/179 66/37/180
